<?xml version="1.0" encoding="utf-8"?>
<!-- Generator: Adobe Illustrator 26.4.0, SVG Export Plug-In . SVG Version: 6.00 Build 0)  -->
<svg version="1.1" id="Layer_1" xmlns="http://www.w3.org/2000/svg" xmlns:xlink="http://www.w3.org/1999/xlink" x="0px" y="0px"
	 viewBox="0 0 578.2 507.5" style="enable-background:new 0 0 578.2 507.5;" xml:space="preserve">
<style type="text/css">
	.st0{fill:#2E3191;}
	.st1{fill:#2E368F;}
	.st2{fill:#2E3191;stroke:#2E368F;stroke-width:8;stroke-miterlimit:10;}
</style>
<g>
	<polygon class="st0" points="463.5,137.3 497.3,118.3 433.5,7.9 307.6,7.9 307.6,46.6 411.2,46.6 	"/>
	<polygon class="st0" points="44.6,258.3 96.5,168.6 63,149 -0.1,258.3 60.9,363.9 94.7,344.9 	"/>
	<polygon class="st0" points="114.1,378.3 80.3,397.3 144.5,508.2 268.9,508.2 268.9,469.5 166.8,469.5 	"/>
	<polygon class="st0" points="516.7,152 482.9,171 533.4,258.3 481.2,348.6 514.6,368.1 578.1,258.3 	"/>
</g>
<circle class="st0" cx="159.7" cy="50.8" r="50"/>
<circle class="st1" cx="410.8" cy="451" r="50"/>
<g>
	<path class="st2" d="M345.8,123.4c-0.1,0.1-0.2,0.2-0.3,0.3l-103.2,90.2c-2,1.8-5.1,1.6-6.8-0.5c-1.8-2-1.5-5.1,0.5-6.8l103.2-90.2
		c2-1.8,5.1-1.6,6.8,0.5C347.6,118.8,347.5,121.6,345.8,123.4z"/>
	<path class="st2" d="M386.5,186.3c-0.2,0.2-0.5,0.5-0.8,0.7L231.4,289.7c-2.2,1.5-5.2,0.9-6.7-1.4c-1.5-2.2-0.9-5.2,1.4-6.7
		l154.3-102.7c2.2-1.5,5.2-0.9,6.7,1.4C388.3,182.2,388,184.7,386.5,186.3z"/>
	<path class="st2" d="M347,212.6c-1.8,1.8-4.6,2-6.6,0.3l-104.3-87.7c-2.1-1.7-2.3-4.8-0.6-6.8c1.7-2,4.8-2.3,6.8-0.6l104.3,87.7
		c2.1,1.7,2.3,4.8,0.6,6.8C347.2,212.4,347.1,212.5,347,212.6z"/>
	<path class="st2" d="M359.4,288.1c-1.6,1.6-4.1,2-6.1,0.7l-155.6-99.2c-2.3-1.4-2.9-4.4-1.5-6.7c1.4-2.3,4.4-2.9,6.7-1.5
		l155.6,99.2c2.3,1.4,2.9,4.4,1.5,6.7C359.9,287.6,359.7,287.9,359.4,288.1z"/>
	<path class="st2" d="M294,105.2c-0.9,0.9-2.1,1.4-3.4,1.5c-2.7,0-4.9-2.1-4.9-4.8l-0.3-17.7c0-2.7,2.1-4.9,4.8-4.9
		c2.7,0,4.9,2.1,4.9,4.8l0.3,17.7C295.4,103.1,294.8,104.3,294,105.2z"/>
	<path class="st2" d="M402,268.6c-0.5,0.5-1.2,1-2,1.2c-94.8,31.3-100.7,99.9-100.9,102.8c-0.2,2.5-2.2,4.5-4.8,4.5
		c-2.5,0-4.6-1.9-4.9-4.4c-0.3-3-8.1-71.3-103.7-99.9c-2-0.6-3.4-2.5-3.5-4.6C181.2,123.7,287.4,80,288.5,79.6
		c1.1-0.4,2.3-0.5,3.4,0c1.1,0.4,108.5,41.1,111.5,185.6C403.4,266.4,402.9,267.7,402,268.6z M323.5,304.3
		c15.4-15.8,37.7-31.3,70-42.5c-4.2-125.1-89.9-166.7-103.3-172.4c-13.2,6.1-97.7,50.3-98.3,175.3c67.9,21.4,92.9,62.5,102,87.1
		C298.4,338.8,307,321.4,323.5,304.3z"/>
	<path class="st2" d="M298.1,399.4c-0.1,0.1-0.2,0.2-0.3,0.3c-1.1,0.9-2.6,1.3-4,1.1c-58.5-10.7-98-32.8-117.5-65.6
		c-21.4-36-10.3-71.3-9.8-72.8c0.8-2.4,3.2-3.8,5.7-3.2c117.8,26.9,126.9,111.9,127,112.7c0,0.1,0,0.3,0,0.4l0.3,23.6
		C299.5,397.2,299,398.4,298.1,399.4z M174.6,269.8c-2,9.9-5,35.4,10.1,60.6c17.4,29.1,52.8,49.2,105.1,59.7l-0.3-17.5
		C288.9,367.6,279.4,295.7,174.6,269.8z"/>
	<path class="st2" d="M395.3,353.2c-21.5,22.1-54.8,38-99.7,47.6c-1.4,0.3-2.9,0-4-1c-1.1-0.9-1.8-2.3-1.8-3.7l-0.3-23.6
		c0-0.1,0-0.3,0-0.4c0.1-0.9,6.8-86,123.8-116.3c2.4-0.6,4.9,0.7,5.8,3.1c0.5,1.5,12.7,36.4-7.7,73
		C407.1,339.5,401.7,346.6,395.3,353.2z M299.4,390c52.1-12,86.9-33.1,103.4-62.8c14.3-25.8,10.6-50.9,8.3-60.7
		c-104,28.9-111.5,101-111.9,106.1L299.4,390z"/>
	<path class="st2" d="M298.4,417.1c-0.9,0.9-2.1,1.4-3.4,1.5c-2.7,0-4.9-2.1-4.9-4.8l-0.3-17.8c0-2.7,2.1-4.9,4.8-4.9
		c2.7,0,4.9,2.1,4.9,4.8l0.3,17.8C299.8,415,299.3,416.2,298.4,417.1z"/>
</g>
</svg>
