<?xml version="1.0" encoding="UTF-8"?>
<svg id="Layer_1" data-name="Layer 1" xmlns="http://www.w3.org/2000/svg" viewBox="0 0 250 250">
  <defs>
    <style>
      .cls-1 {
        fill: #b7c2d7;
      }
    </style>
  </defs>
  <rect class="cls-1" width="250" height="250"/>
  <path d="M224.11,103.44c5.28-15.89,3.45-33.28-5.01-47.72-12.72-22.14-38.29-33.53-63.26-28.18C134.08,3.33,96.81,1.35,72.6,23.11c-7.68,6.91-13.41,15.71-16.62,25.53-16.4,3.36-30.56,13.63-38.85,28.18-12.86,22.11-9.94,50,7.22,68.97-5.3,15.88-3.49,33.27,4.97,47.72,12.74,22.15,38.32,33.54,63.31,28.18,11.11,12.51,27.08,19.64,43.81,19.54,25.6,.02,48.27-16.5,56.09-40.87,16.4-3.37,30.56-13.64,38.85-28.18,12.71-22.07,9.77-49.81-7.26-68.73h0Zm-87.68,122.53c-10.22,.02-20.11-3.56-27.95-10.11l1.38-.78,46.44-26.8c2.35-1.38,3.8-3.9,3.82-6.62V116.18l19.63,11.36c.2,.1,.33,.29,.37,.51v54.25c-.05,24.1-19.58,43.63-43.68,43.68Zm-93.88-40.09c-5.12-8.85-6.96-19.22-5.2-29.29l1.38,.83,46.48,26.8c2.34,1.37,5.24,1.37,7.59,0l56.78-32.74v22.67c-.01,.24-.13,.46-.32,.6l-47.03,27.13c-20.9,12.04-47.6,4.88-59.68-16h0Zm-12.23-101.15c5.16-8.9,13.3-15.7,22.99-19.17v55.17c-.04,2.71,1.41,5.23,3.77,6.57l56.5,32.6-19.63,11.36c-.22,.11-.47,.11-.69,0l-46.94-27.08c-20.86-12.09-28.01-38.77-16-59.68v.23Zm161.28,37.47l-56.69-32.92,19.59-11.31c.22-.11,.47-.11,.69,0l46.94,27.13c20.89,12.06,28.06,38.77,16,59.66-5.08,8.8-13.06,15.55-22.58,19.1v-55.17c-.08-2.71-1.59-5.17-3.96-6.48h0Zm19.54-29.38l-1.38-.83-46.39-27.03c-2.36-1.38-5.28-1.38-7.63,0l-56.73,32.73v-22.67c-.02-.23,.08-.46,.28-.6l46.94-27.08c20.92-12.05,47.66-4.86,59.71,16.06,5.09,8.84,6.93,19.17,5.21,29.23v.18Zm-122.85,40.18l-19.63-11.31c-.2-.12-.33-.32-.37-.55v-54.11c.03-24.15,19.63-43.7,43.78-43.67,10.19,.01,20.06,3.59,27.9,10.1l-1.38,.78-46.43,26.8c-2.35,1.38-3.8,3.9-3.82,6.62l-.05,65.33Zm10.67-22.99l25.29-14.58,25.33,14.58v29.15l-25.24,14.57-25.33-14.57-.05-29.15Z"/>
</svg>