<?xml version="1.0" encoding="UTF-8"?>
<svg id="Layer_1" data-name="Layer 1" xmlns="http://www.w3.org/2000/svg" viewBox="0 0 578.22 507.47">
  <defs>
    <style>
      .cls-1 {
        fill: #2e368f;
      }

      .cls-2, .cls-3 {
        fill: #2e3192;
      }

      .cls-3 {
        stroke: #2e368f;
        stroke-miterlimit: 10;
        stroke-width: 8px;
      }
    </style>
  </defs>
  <g>
    <polygon class="cls-2" points="463.65 136.57 497.43 117.52 433.66 7.1 307.73 7.1 307.73 45.85 411.29 45.85 463.65 136.57"/>
    <polygon class="cls-2" points="44.75 257.49 96.56 167.83 63.11 148.28 0 257.49 61.03 363.11 94.8 344.12 44.75 257.49"/>
    <polygon class="cls-2" points="114.19 377.57 80.42 396.51 144.56 507.47 268.98 507.47 268.98 468.72 166.92 468.72 114.19 377.57"/>
    <polygon class="cls-2" points="516.82 151.23 483.04 170.23 533.46 257.49 481.28 347.82 514.73 367.37 578.22 257.49 516.82 151.23"/>
  </g>
  <circle class="cls-2" cx="159.78" cy="50" r="50"/>
  <circle class="cls-1" cx="410.86" cy="450.27" r="50"/>
  <g>
    <path class="cls-3" d="M345.87,122.67c-.09,.1-.19,.19-.29,.27l-103.2,90.18c-2.02,1.76-5.08,1.55-6.84-.46-1.76-2.02-1.49-5.09,.46-6.84l103.2-90.18c2.02-1.76,5.08-1.55,6.84,.46,1.67,1.92,1.57,4.77-.17,6.57Z"/>
    <path class="cls-3" d="M386.57,185.57c-.23,.24-.5,.47-.79,.66l-154.29,102.68c-2.23,1.48-5.24,.88-6.72-1.35-1.48-2.23-.89-5.24,1.35-6.72l154.29-102.68c2.23-1.48,5.24-.88,6.72,1.35,1.29,1.93,1,4.46-.56,6.06Z"/>
    <path class="cls-3" d="M347.13,211.82c-1.76,1.81-4.64,1.98-6.59,.33l-104.3-87.68c-2.05-1.72-2.31-4.78-.59-6.83,1.68-2.02,4.78-2.31,6.83-.59l104.3,87.68c2.05,1.72,2.31,4.78,.59,6.83-.08,.09-.15,.18-.24,.26Z"/>
    <path class="cls-3" d="M359.54,287.37c-1.57,1.62-4.11,1.97-6.08,.71l-155.61-99.2c-2.26-1.44-2.92-4.44-1.48-6.7,1.45-2.27,4.44-2.92,6.7-1.48l155.61,99.2c2.26,1.44,2.92,4.44,1.48,6.7-.18,.28-.39,.54-.62,.77Z"/>
    <path class="cls-3" d="M294.09,104.41c-.87,.89-2.07,1.45-3.41,1.47-2.68,.04-4.88-2.1-4.92-4.78l-.25-17.72c-.04-2.68,2.1-4.88,4.78-4.92,2.68-.04,4.88,2.1,4.92,4.78l.25,17.72c.02,1.34-.5,2.56-1.37,3.45Z"/>
    <path class="cls-3" d="M402.11,267.82c-.53,.55-1.19,.97-1.96,1.23-94.84,31.33-100.67,99.92-100.87,102.83-.18,2.52-2.25,4.49-4.78,4.52-2.52,.03-4.65-1.87-4.88-4.39-.29-2.97-8.11-71.3-103.74-99.92-2.04-.61-3.44-2.48-3.46-4.61-1.12-144.53,105.08-188.25,106.15-188.68,1.1-.43,2.33-.45,3.44-.05,1.08,.39,108.49,41.09,111.46,185.59,.03,1.33-.49,2.57-1.37,3.48Zm-78.45,35.71c15.38-15.82,37.69-31.31,70.04-42.53-4.15-125.14-89.88-166.7-103.25-172.42-13.17,6.12-97.72,50.33-98.33,175.28,67.85,21.41,92.91,62.47,102.04,87.13,4.38-12.93,12.91-30.39,29.5-47.46Z"/>
    <path class="cls-3" d="M298.26,398.6c-.11,.11-.22,.22-.35,.32-1.11,.94-2.58,1.33-4.01,1.07-58.49-10.71-98.04-32.77-117.55-65.57-21.43-36.03-10.27-71.29-9.79-72.77,.78-2.38,3.24-3.77,5.69-3.22,117.77,26.92,126.94,111.85,127.01,112.7,0,.13,.02,.25,.02,.38l.34,23.64c.02,1.29-.48,2.53-1.37,3.45Zm-123.54-129.61c-2.04,9.91-5.05,35.35,10.06,60.63,17.42,29.14,52.75,49.22,105.07,59.73l-.25-17.48c-.54-5.07-10.13-76.94-114.88-102.88Z"/>
    <path class="cls-3" d="M395.46,352.41c-21.46,22.08-54.85,38.03-99.67,47.56-1.42,.3-2.9-.05-4.03-.95-1.13-.91-1.8-2.27-1.82-3.72l-.34-23.64c0-.13,0-.25,0-.38,.05-.85,6.8-86,123.77-116.26,2.43-.63,4.93,.7,5.78,3.05,.53,1.47,12.68,36.4-7.72,73.02-4.26,7.64-9.59,14.75-15.97,21.32Zm-95.92,36.79c52.09-12.01,86.87-33.13,103.42-62.83,14.35-25.75,10.6-50.94,8.26-60.74-103.97,28.9-111.53,101.02-111.93,106.1l.25,17.48Z"/>
    <path class="cls-3" d="M298.5,416.36c-.87,.89-2.07,1.45-3.41,1.47-2.68,.04-4.88-2.1-4.92-4.78l-.25-17.76c-.04-2.68,2.1-4.88,4.78-4.92s4.88,2.1,4.92,4.78l.25,17.76c.02,1.34-.5,2.56-1.37,3.45Z"/>
  </g>
</svg>