<svg width="100" height="100" viewBox="0 0 100 100" fill="none" xmlns="http://www.w3.org/2000/svg">
<rect width="100" height="100" rx="16" fill="#0C0A09"/>
<path d="M71.1426 42.0408V13.5254H77.5717V36.6176H88.8554V42.0408H71.1426Z" fill="url(#paint0_linear_676_160)"/>
<path d="M52.8354 37.3168C54.7889 37.3168 56.3342 36.4712 57.4713 34.7801C58.6084 33.0599 59.177 30.6836 59.177 27.6513C59.177 24.7939 58.6084 22.5634 57.4713 20.9598C56.3342 19.3562 54.7889 18.5544 52.8354 18.5544C50.8819 18.5544 49.3366 19.3562 48.1995 20.9598C47.0623 22.5634 46.4938 24.7939 46.4938 27.6513C46.4938 30.6836 47.0623 33.0599 48.1995 34.7801C49.3366 36.4712 50.8819 37.3168 52.8354 37.3168ZM62.2385 50C59.2353 50 56.6841 49.2565 54.5848 47.7695C52.4855 46.3117 50.9256 44.4748 49.9051 42.2589C46.8728 41.6174 44.4382 40.0284 42.6014 37.4917C40.7936 34.9551 39.8898 31.6749 39.8898 27.6513C39.8898 24.5315 40.4292 21.8928 41.508 19.7352C42.6159 17.5485 44.1321 15.8865 46.0564 14.7494C48.0099 13.5831 50.2696 13 52.8354 13C55.4012 13 57.6463 13.5831 59.5706 14.7494C61.5241 15.8865 63.0403 17.5485 64.1191 19.7352C65.227 21.922 65.781 24.5607 65.781 27.6513C65.781 31.4708 64.9646 34.6344 63.3319 37.1418C61.6991 39.6202 59.4977 41.253 56.7278 42.0402C57.3984 43.0315 58.3023 43.7459 59.4394 44.1832C60.6057 44.6206 61.7865 44.8392 62.982 44.8392C63.5943 44.8392 64.1628 44.7809 64.6876 44.6643C65.2416 44.5768 65.7227 44.4748 66.1309 44.3582L67.268 49.0378C66.7432 49.3002 66.0434 49.5189 65.1687 49.6939C64.3232 49.8979 63.3464 50 62.2385 50Z" fill="url(#paint1_linear_676_160)"/>
<path d="M25.9515 42.565C23.3566 42.565 20.9949 42.011 18.8664 40.9031C16.7671 39.7951 15.0906 38.1623 13.8369 36.0047C12.6123 33.818 12 31.1355 12 27.9574C12 24.8085 12.6269 22.1261 13.8806 19.9102C15.1635 17.6651 16.8546 15.9594 18.9539 14.7931C21.0532 13.5977 23.3712 13 25.9078 13C27.9779 13 29.7565 13.379 31.2435 14.1371C32.7305 14.8952 33.9405 15.7553 34.8735 16.7175L31.5059 20.8286C30.777 20.1872 30.0043 19.6478 29.1879 19.2104C28.3716 18.7731 27.3511 18.5544 26.1265 18.5544C23.9106 18.5544 22.1028 19.3708 20.7033 21.0035C19.3038 22.6363 18.604 24.8814 18.604 27.7388C18.604 30.6545 19.2746 32.9287 20.6158 34.5615C21.9571 36.1942 23.9543 37.0106 26.6076 37.0106C27.1907 37.0106 27.7593 36.9377 28.3132 36.792C28.8672 36.6462 29.3191 36.4275 29.669 36.1359V31.2376H24.9456V25.9894H35.3546V39.1099C34.3633 40.0721 33.0366 40.8885 31.3747 41.5591C29.7419 42.2297 27.9342 42.565 25.9515 42.565Z" fill="url(#paint2_linear_676_160)"/>
<path d="M12 88V59H22.1619C24.3394 59 26.3052 59.2965 28.0594 59.8896C29.8437 60.453 31.2652 61.4167 32.3237 62.7807C33.3822 64.1447 33.9115 65.998 33.9115 68.3405C33.9115 70.5941 33.3822 72.4473 32.3237 73.9003C31.2652 75.3533 29.8589 76.4356 28.1047 77.1472C26.3506 77.8292 24.4301 78.1702 22.3433 78.1702H18.6687V88H12ZM18.6687 72.9663H21.935C25.5643 72.9663 27.3789 71.4243 27.3789 68.3405C27.3789 66.8282 26.895 65.7607 25.9272 65.138C24.9594 64.5153 23.5682 64.204 21.7536 64.204H18.6687V72.9663Z" fill="white"/>
<path d="M44.1655 88V64.5153H36.0451V59H59V64.5153H50.8796V88H44.1655Z" fill="white"/>
<defs>
<linearGradient id="paint0_linear_676_160" x1="11.6681" y1="25.6397" x2="54.952" y2="37.7839" gradientUnits="userSpaceOnUse">
<stop stop-color="#FF7BCF"/>
<stop offset="1" stop-color="#F6009C"/>
</linearGradient>
<linearGradient id="paint1_linear_676_160" x1="11.6682" y1="25.6395" x2="54.9521" y2="37.7837" gradientUnits="userSpaceOnUse">
<stop stop-color="#FF7BCF"/>
<stop offset="1" stop-color="#F6009C"/>
</linearGradient>
<linearGradient id="paint2_linear_676_160" x1="11.6681" y1="25.6395" x2="54.952" y2="37.7837" gradientUnits="userSpaceOnUse">
<stop stop-color="#FF7BCF"/>
<stop offset="1" stop-color="#F6009C"/>
</linearGradient>
</defs>
</svg>
