<svg width="100" height="100" viewBox="0 0 100 100" fill="none" xmlns="http://www.w3.org/2000/svg">
<rect width="100" height="100" rx="16" fill="#0C0A09"/>
<path d="M70.9673 39.8168V11.5227H78.3874V33.5486H89V39.8168H70.9673Z" fill="url(#paint0_linear_676_164)"/>
<path d="M52.9181 34.2447C54.6149 34.2447 55.9379 33.4902 56.887 31.9812C57.8648 30.4722 58.3538 28.3247 58.3538 25.5388C58.3538 22.9561 57.8648 20.9682 56.887 19.5753C55.9379 18.1533 54.6149 17.4424 52.9181 17.4424C51.25 17.4424 49.927 18.1533 48.9491 19.5753C47.9713 20.9682 47.4824 22.9561 47.4824 25.5388C47.4824 28.3247 47.9713 30.4722 48.9491 31.9812C49.927 33.4902 51.25 34.2447 52.9181 34.2447ZM62.409 48C59.2741 48 56.6138 47.2455 54.428 45.7365C52.271 44.2275 50.646 42.2977 49.5531 39.9471C46.6196 39.2796 44.2756 37.698 42.5212 35.2024C40.7668 32.7067 39.8896 29.4855 39.8896 25.5388C39.8896 22.4337 40.4361 19.8075 41.529 17.66C42.6219 15.4835 44.1462 13.8294 46.1019 12.6976C48.0576 11.5659 50.3296 11 52.9181 11C55.5065 11 57.7785 11.5659 59.7342 12.6976C61.69 13.8294 63.2143 15.4835 64.3071 17.66C65.4 19.8075 65.9465 22.4337 65.9465 25.5388C65.9465 29.2243 65.17 32.2859 63.6169 34.7235C62.0926 37.1322 60.0075 38.7718 57.3615 39.6424C58.023 40.542 58.9002 41.1659 59.9931 41.5141C61.1147 41.8914 62.2076 42.08 63.2718 42.08C63.8757 42.08 64.4509 42.022 64.9974 41.9059C65.5438 41.8188 66.0328 41.7027 66.4642 41.5576L67.7584 46.9553C67.2119 47.2455 66.4785 47.4922 65.5582 47.6953C64.6379 47.8984 63.5881 48 62.409 48Z" fill="url(#paint1_linear_676_164)"/>
<path d="M26.1501 40.3388C23.5329 40.3388 21.1458 39.8165 18.9888 38.7718C16.8605 37.698 15.1636 36.0875 13.8982 33.94C12.6327 31.7926 12 29.1082 12 25.8871C12 23.5075 12.3739 21.4035 13.1217 19.5753C13.8694 17.718 14.8904 16.151 16.1846 14.8741C17.4788 13.5973 18.96 12.6396 20.6281 12.0012C22.325 11.3337 24.1081 11 25.9775 11C28.0483 11 29.8458 11.3773 31.3701 12.1318C32.8944 12.8573 34.1454 13.7278 35.1233 14.7435L31.2407 19.5318C30.5504 18.9224 29.817 18.429 29.0405 18.0518C28.2927 17.6455 27.358 17.4424 26.2364 17.4424C24.3382 17.4424 22.7564 18.1678 21.4909 19.6188C20.2254 21.0408 19.5927 23.0431 19.5927 25.6259C19.5927 28.2667 20.1823 30.3126 21.3615 31.7635C22.5694 33.1855 24.4245 33.8965 26.9266 33.8965C27.3292 33.8965 27.7175 33.8529 28.0914 33.7659C28.494 33.6788 28.8248 33.5482 29.0836 33.3741V29.4565H24.9421V23.3624H35.641V36.8565C34.6631 37.8141 33.3258 38.6412 31.6289 39.3377C29.9608 40.0051 28.1345 40.3388 26.1501 40.3388Z" fill="url(#paint2_linear_676_164)"/>
<path d="M12 89V52H25.2595C27.8965 52 30.3292 52.3795 32.5577 53.1385C34.7862 53.8974 36.569 55.1687 37.9061 56.9523C39.2803 58.7359 39.9674 61.1836 39.9674 64.2954C39.9674 67.2933 39.2803 69.76 37.9061 71.6954C36.569 73.5928 34.7862 74.9969 32.5577 75.9077C30.3664 76.8185 28.0079 77.2738 25.4823 77.2738H21.5825V89H12ZM21.5825 69.5323H25.0366C26.9308 69.5323 28.3236 69.0769 29.215 68.1662C30.1435 67.2174 30.6078 65.9272 30.6078 64.2954C30.6078 62.6256 30.1064 61.4492 29.1036 60.7662C28.1008 60.0831 26.6708 59.7415 24.8138 59.7415H21.5825V69.5323Z" fill="white"/>
<path d="M52.2593 89V60.1969H42.6769V52H71.4242V60.1969H61.8418V89H52.2593Z" fill="white"/>
<defs>
<linearGradient id="paint0_linear_676_164" x1="-240.701" y1="26.6535" x2="-132.746" y2="126.333" gradientUnits="userSpaceOnUse">
<stop stop-color="#FF7BCF"/>
<stop offset="1" stop-color="#F6009C"/>
</linearGradient>
<linearGradient id="paint1_linear_676_164" x1="-65.6461" y1="23.493" x2="14.7102" y2="86.2753" gradientUnits="userSpaceOnUse">
<stop stop-color="#FF7BCF"/>
<stop offset="1" stop-color="#F6009C"/>
</linearGradient>
<linearGradient id="paint2_linear_676_164" x1="11.787" y1="23.4931" x2="55.156" y2="35.7568" gradientUnits="userSpaceOnUse">
<stop stop-color="#FF7BCF"/>
<stop offset="1" stop-color="#F6009C"/>
</linearGradient>
</defs>
</svg>
